<?xml version="1.0" encoding="utf-8" ?><svg xmlns="http://www.w3.org/2000/svg" xmlns:xlink="http://www.w3.org/1999/xlink" width="24" height="24" viewBox="0 0 24 24"><path transform="scale(0.046875 0.046875)" d="M238.859 233.42C224.195 210.711 234.951 177.156 252.257 159.128C255.526 155.722 259.265 152.282 262.687 148.914L299.598 112.073C316.605 95.0472 329.831 83.088 355.623 82.4881C363.356 81.6493 373.863 83.649 381.207 86.2312C427.626 102.553 443.336 159.533 413.17 198.044C409.286 203.002 405.481 206.623 401.05 211.036L363.453 248.717C359.298 252.971 354.708 258.105 350.141 261.811C327.936 279.832 304.745 285.217 278.168 275.534C277.159 276.443 276.064 277.543 275.079 278.495C284.543 304.314 280.997 330.663 260.769 350.802L209.051 402.551C192.873 418.952 177.623 428.14 153.548 428.309C100.052 427.722 66.7459 373.292 90.7813 325.255C96.5783 313.669 104.259 307.101 113.295 298.289L152.747 259.151C175.279 236.501 201.005 221.76 233.471 238.796C235.367 237.115 237.102 235.248 238.859 233.42ZM354.804 92.2573C331.883 94.3307 323.795 101.734 308.638 116.894L268.04 157.342C264.42 160.986 259.678 165.388 256.496 169.208C245.389 182.545 235.489 210.136 245.932 226.29C251.342 221.559 255.993 215.557 260.994 211.26C259.435 191.349 268.25 182.393 280.811 170.015L320.53 130.461C332.041 119.081 337.506 112.471 354.871 111.095C388.874 108.401 410.32 144.906 396.181 173.081C392.17 181.266 387.405 185.554 381.138 191.836L343.635 229.172C329.61 243.221 321.619 252.888 300.142 252.183C296.504 255.529 287.554 264.388 284.446 268.275L284.948 268.333C289.971 268.931 293.15 270.194 298.671 270.608C322.989 272.43 339.727 258.493 355.363 242.675L371.864 226.216C382.974 215.044 400.09 200.432 408.134 188.311C435.996 146.158 406.424 89.7537 354.804 92.2573ZM354.804 120.84C340.621 122.746 336.402 128.479 326.893 137.973L286.536 178.041C275.978 188.413 274.85 188.085 270.469 202.598C274.615 200.929 277.93 199.475 282.413 198.872C302.678 196.145 319.422 216.026 312.035 235.673C311.074 238.1 309.973 240.103 308.759 242.399C319.702 239.974 325.269 233.608 332.854 226.03L372.295 186.625C376.662 182.178 381.378 178.079 384.835 172.854C400.545 149.106 381.804 117.569 354.804 120.84ZM283.674 208.936C280.883 208.962 277.072 209.531 274.983 211.492C259.537 225.991 243.97 241.602 229.189 256.69L220.781 265.359C215.368 270.834 208.425 276.236 207.437 284.291C205.879 296.992 215.682 306.042 228.289 304.455C241.271 302.059 260.533 277.965 270.144 268.191L290.586 247.453C293.921 244.047 298.148 240.301 300.855 236.437C311.851 220.742 292.785 204.065 283.674 208.936ZM203.34 241.265C182.995 243.048 173.476 251.505 160.162 264.989L118.101 306.864C114.308 310.658 109.971 314.343 106.595 318.569C65.7429 369.703 118.656 439.036 178.77 413.238C192.131 407.505 196.291 401.868 206.205 391.872L244.857 353.204C261.196 337.028 272.329 324.428 270.469 298.807C269.86 294.171 268.976 289.619 267.546 285.162C262.702 290.622 256.896 295.535 252.27 300.896C252.126 317.448 247.392 324.899 236.117 336.291L197.17 375.152C193.756 378.567 190.134 382.174 186.756 385.658C146.01 427.668 80.479 368.443 127.79 322.819L169.269 282.031C184.635 267 190.791 257.127 214.404 258.233C218.553 254.488 222.868 250.074 226.841 246.085C220.2 242.73 210.79 240.497 203.34 241.265ZM203.34 268.275C191.525 271.558 188.609 276.018 180.148 284.324L141.842 322.044C137.897 325.934 130.878 332.241 127.823 336.696C108.306 365.152 134.848 400.699 168.116 387.199C177.421 382.73 184.905 373.977 192.086 366.626L226.231 332.395C232.838 325.768 240.629 319.254 241.764 309.407C216.839 323.299 190.878 303.517 199.079 277.734C200.01 274.804 203.813 269.459 203.996 268.323L203.34 268.275Z"/><path transform="scale(0.046875 0.046875)" d="M213.322 184.315C205.937 184.489 199.594 162.762 196.759 155.92C195.23 152.228 196.259 149.749 200.08 148.516C206.905 148.503 212.904 169.627 216.01 176.375C217.747 180.149 217.6 182.709 213.322 184.315Z"/><path transform="scale(0.046875 0.046875)" d="M182.211 208.936C178.355 209.12 156.011 198.539 152.386 196.603C148.598 194.581 149.559 189.6 153.548 187.757C157.04 187.519 179.331 198.046 182.978 199.818C187.646 202.088 186.173 206.754 182.211 208.936Z"/><path transform="scale(0.046875 0.046875)" d="M235.777 283.56C229.511 284.695 227.933 278.796 232.015 274.733L272.925 233.966C275.844 231.032 281.023 225.107 284.446 223.526C289.536 223.182 292.355 227.865 289.338 231.617C286.709 234.888 282.686 238.324 279.603 241.354C272.765 248.072 241.331 280.622 235.777 283.56Z"/><path transform="scale(0.046875 0.046875)" d="M373.184 309.407C369.831 308.996 350.999 301.415 346.441 299.515C341.596 297.495 342.034 292.599 346.289 289.996C350.549 289.661 367.408 297.413 372.552 299.053C377.819 300.733 377.787 305.951 373.184 309.407Z"/><path transform="scale(0.046875 0.046875)" d="M339.973 342.597C334.527 343.074 328.441 334.11 324.29 330.159C320.38 326.439 318.193 322.958 323.805 319.784C328.818 319.309 341.528 332.923 342.953 335.823C344.358 338.681 342.566 341.326 339.973 342.597Z"/><path transform="scale(0.046875 0.046875)" d="M305.515 374.642C297.18 375.546 294.109 358.41 291.286 350.96C289.699 346.772 287.663 342.766 292.723 340.305C299.88 339.746 301.375 350.677 303.73 356.746C305.779 362.215 312.35 371.477 305.515 374.642Z"/></svg>